<svg width="623" height="686" viewBox="0 0 623 686" fill="none" xmlns="http://www.w3.org/2000/svg">
<path fill-rule="evenodd" clip-rule="evenodd" d="M56.0061 63H0V108.007C0.166107 108.002 0.332764 108 0.5 108C10.165 108 18 115.835 18 125.5C18 135.165 10.165 143 0.5 143C0.332764 143 0.166107 142.998 0 142.993V178.007C0.166107 178.002 0.332764 178 0.5 178C10.165 178 18 185.835 18 195.5C18 205.165 10.165 213 0.5 213C0.332764 213 0.166107 212.998 0 212.993V248.007C0.166107 248.002 0.332764 248 0.5 248C10.165 248 18 255.835 18 265.5C18 275.165 10.165 283 0.5 283C0.332764 283 0.166107 282.998 0 282.993V318.007C0.166107 318.002 0.332764 318 0.5 318C10.165 318 18 325.835 18 335.5C18 345.165 10.165 353 0.5 353C0.332764 353 0.166107 352.998 0 352.993V388.007C0.166107 388.002 0.332764 388 0.5 388C10.165 388 18 395.835 18 405.5C18 415.165 10.165 423 0.5 423C0.332764 423 0.166107 422.998 0 422.993V458.007C0.166107 458.002 0.332764 458 0.5 458C10.165 458 18 465.835 18 475.5C18 485.165 10.165 493 0.5 493C0.332764 493 0.166107 492.998 0 492.993V528.007C0.166107 528.002 0.332764 528 0.5 528C10.165 528 18 535.835 18 545.5C18 555.165 10.165 563 0.5 563C0.332764 563 0.166107 562.998 0 562.993V598.007C0.166107 598.002 0.332764 598 0.5 598C10.165 598 18 605.835 18 615.5C18 625.165 10.165 633 0.5 633C0.332764 633 0.166107 632.998 0 632.993V686H56.0061C56.0039 685.909 56.0023 685.818 56.0013 685.727C56.0004 685.652 56 685.576 56 685.5C56 674.731 64.5066 666 75 666C85.4934 666 94 674.73 94 685.5C94 685.667 93.9979 685.834 93.9939 686H125.006C125.002 685.834 125 685.667 125 685.5C125 674.731 133.507 666 144 666C154.493 666 163 674.73 163 685.5C163 685.667 162.998 685.834 162.994 686H196.006C196.005 685.943 196.004 685.886 196.003 685.83L196.001 685.723L196.001 685.699C196 685.633 196 685.566 196 685.5C196 674.731 204.507 666 215 666C225.493 666 234 674.73 234 685.5C234 685.667 233.998 685.834 233.994 686H265.006C265.002 685.834 265 685.667 265 685.5C265 674.731 273.507 666 284 666C294.493 666 303 674.73 303 685.5C303 685.667 302.998 685.834 302.994 686H334.006C334.002 685.834 334 685.667 334 685.5C334 674.731 342.954 666 354 666C365.046 666 374 674.73 374 685.5C374 685.667 373.998 685.834 373.994 686H408.006C408.002 685.834 408 685.667 408 685.5C408 674.731 416.507 666 427 666C437.493 666 446 674.73 446 685.5C446 685.667 445.998 685.834 445.994 686H477.006C477.002 685.834 477 685.667 477 685.5C477 674.731 485.507 666 496 666C506.493 666 515 674.73 515 685.5C515 685.667 514.998 685.834 514.994 686H546.006C546.002 685.834 546 685.667 546 685.5C546 674.73 554.507 666 565 666C575.493 666 584 674.73 584 685.5C584 685.583 583.999 685.666 583.998 685.749C583.997 685.832 583.996 685.916 583.994 686H623V627.994C622.834 627.998 622.667 628 622.5 628C611.73 628 603 619.493 603 609C603 598.507 611.73 590 622.5 590C622.667 590 622.834 590.002 623 590.006V558.994C622.834 558.998 622.667 559 622.5 559C611.73 559 603 550.493 603 540C603 529.507 611.73 521 622.5 521C622.667 521 622.834 521.002 623 521.006V489.994C622.834 489.998 622.667 490 622.5 490C611.73 490 603 481.493 603 471C603 460.507 611.73 452 622.5 452C622.667 452 622.834 452.002 623 452.006V417.994C622.834 417.998 622.667 418 622.5 418C611.73 418 603 409.046 603 398C603 386.954 611.73 378 622.5 378C622.667 378 622.834 378.002 623 378.006V346.994C622.834 346.998 622.667 347 622.5 347C611.73 347 603 338.493 603 328C603 317.507 611.73 309 622.5 309C622.667 309 622.834 309.002 623 309.006V277.994C622.834 277.998 622.667 278 622.5 278C611.73 278 603 269.493 603 259C603 248.507 611.73 240 622.5 240C622.667 240 622.834 240.002 623 240.006V206.994C622.834 206.998 622.667 207 622.5 207C611.73 207 603 198.493 603 188C603 177.507 611.73 169 622.5 169C622.667 169 622.834 169.002 623 169.006V137.994C622.834 137.998 622.667 138 622.5 138C611.73 138 603 129.493 603 119C603 108.507 611.73 100 622.5 100C622.667 100 622.834 100.002 623 100.006V63H583.994C583.735 73.5385 575.331 82 565 82C554.669 82 546.265 73.5385 546.006 63H514.994C514.735 73.5385 506.331 82 496 82C485.669 82 477.265 73.5385 477.006 63H445.994C445.735 73.5385 437.331 82 427 82C416.669 82 408.265 73.5385 408.006 63H373.994C373.722 73.5385 364.874 82 354 82C343.126 82 334.278 73.5385 334.006 63H302.994C302.735 73.5385 294.331 82 284 82C273.669 82 265.265 73.5385 265.006 63H233.994C233.735 73.5385 225.331 82 215 82C204.669 82 196.265 73.5385 196.006 63H162.994C162.735 73.5385 154.331 82 144 82C133.669 82 125.265 73.5385 125.006 63H93.9939C93.7354 73.5385 85.3305 82 75 82C64.6695 82 56.2646 73.5385 56.0061 63Z" fill="#5C5C6C"/>
<rect x="70.5" y="109.5" width="482" height="529" stroke="black"/>
<rect x="84.5" y="95.5" width="482" height="529" stroke="black"/>
<path d="M228.5 519.5L152 311.5C150 305.5 147.167 301 143.5 298C140.167 294.667 135.667 292 130 290L121.5 287.5V278H241V287.5L233 289.5C220.333 292.833 216.167 300.833 220.5 313.5L266 449.5L308 338L300.5 315.5C298.167 308.5 295.667 303 293 299C290.667 295 287.167 292.167 282.5 290.5L274 287.5V278H377V287.5L370 290C364.667 292 361.333 294.833 360 298.5C359 301.833 359.667 306.833 362 313.5L406.5 446.5L451.5 314C455.5 301 452.5 293.167 442.5 290.5L432.5 287.5V278H499.5V287.5L488.5 290.5C482.833 292.167 478.5 294.667 475.5 298C472.5 301.333 470 306 468 312L396 519.5H370L315.5 360L256.5 519.5H228.5Z" fill="black"/>
<rect x="84" y="95" width="469" height="14" fill="#A62F2F"/>
<rect x="567" y="95" width="530" height="14" transform="rotate(90 567 95)" fill="#A62F2F"/>
</svg>
